<?xml version="1.0" encoding="UTF-8"?>
<svg id="Layer_1" data-name="Layer 1" xmlns="http://www.w3.org/2000/svg" viewBox="0 0 456 130">
  <g>
    <path id="Path_264" data-name="Path 264" d="M261.87,127.78c1.26,1.15,2.92,1.75,4.63,1.68,1.67.08,3.31-.43,4.63-1.45,1.15-.93,1.79-2.35,1.73-3.82-.02-1.37-.81-2.62-2.04-3.23-1.34-.75-2.81-1.24-4.33-1.45-.94-.13-1.84-.49-2.62-1.03-.74-.46-1.19-1.27-1.2-2.14-.02-.79.37-1.53,1.03-1.96.84-.52,1.81-.77,2.79-.72.93-.02,1.83.32,2.51.95.71.69,1.17,1.59,1.31,2.56h2.12c.06-1.48-.53-2.92-1.62-3.93-1.2-1.03-2.75-1.56-4.33-1.48-1.54-.08-3.06.36-4.32,1.25-1.05.78-1.66,2.02-1.62,3.32,0,1.38.7,2.66,1.84,3.43,1.22.86,2.62,1.42,4.1,1.65,1,.14,1.97.44,2.88.89.82.38,1.35,1.19,1.37,2.09.03.92-.42,1.79-1.17,2.32-.9.62-1.98.92-3.07.86-2.22.12-4.12-1.57-4.24-3.79,0-.15,0-.3,0-.45h-2.12c-.08,1.66.55,3.29,1.73,4.46M258.22,112.08h-2.12v16.96h2.12v-16.96ZM239.43,129.04v-12.71l5.07,12.72h1.48l5.11-12.72v12.72h2.12v-16.97h-2.65l-5.31,13.36-5.3-13.36h-2.65v16.96h2.13ZM235.47,129.04v-2.01h-9.54v-5.76h8.48v-2.01h-8.48v-5.18h9.54v-2.01h-11.68v16.96h11.68Z" style="fill: #161615; stroke-width: 0px;"/>
    <rect id="Rectangle_96" data-name="Rectangle 96" x="211.97" y="112.17" width="7.63" height="7.63" style="fill: #0099d0; stroke-width: 0px;"/>
    <rect id="Rectangle_97" data-name="Rectangle 97" x="211.97" y="121.34" width="7.63" height="7.63" style="fill: #004e75; stroke-width: 0px;"/>
    <rect id="Rectangle_98" data-name="Rectangle 98" x="202.8" y="121.34" width="7.63" height="7.63" style="fill: #003146; stroke-width: 0px;"/>
  </g>
  <rect id="Rectangle_99" data-name="Rectangle 99" x="135.29" y="96.83" width="320.71" height="1.78" style="fill: #afabab; stroke-width: 0px;"/>
  <g>
    <path id="Path_288" data-name="Path 288" d="M389.96,119.48h2.83c1.01,0,2.38-.17,2.38-1.74,0-1.1-.61-1.74-2.68-1.74h-2.53v3.49ZM384.56,111.81h10.29c2.81-.34,5.35,1.67,5.69,4.47.02.18.03.36.04.54.12,1.87-.93,3.61-2.63,4.39,1.63.84,2.63,2.54,2.58,4.37-.01,1.28.19,2.55.59,3.76h-5.41c-.25-.88-.39-1.79-.44-2.7-.15-1.67-.3-3.42-2.43-3.42h-2.88v6.12h-5.41v-17.53Z" style="fill: #96222b; stroke-width: 0px;"/>
    <path id="Path_289" data-name="Path 289" d="M425.46,124.86h2.12c3.37,0,3.86-2.73,3.86-4.37.18-2.13-1.41-4-3.54-4.18-.24-.02-.47-.02-.71,0h-1.72v8.55ZM420.05,111.81h8.87c5.85,0,7.91,4.32,7.91,8.75.48,4.39-2.69,8.33-7.08,8.81-.63.07-1.27.06-1.89-.02h-7.81v-17.54Z" style="fill: #96222b; stroke-width: 0px;"/>
    <path id="Path_290" data-name="Path 290" d="M444.58,124.86h2.11c3.37,0,3.86-2.73,3.86-4.37.18-2.13-1.41-4.01-3.55-4.18-.23-.02-.47-.02-.7,0h-1.72v8.55ZM439.17,111.81h8.87c5.85,0,7.91,4.32,7.91,8.75.48,4.39-2.69,8.33-7.08,8.81-.63.07-1.27.06-1.89-.02h-7.81v-17.54Z" style="fill: #96222b; stroke-width: 0px;"/>
    <rect id="Rectangle_100" data-name="Rectangle 100" x="402.76" y="111.81" width="14.79" height="4.5" style="fill: #9b9697; stroke-width: 0px;"/>
    <rect id="Rectangle_101" data-name="Rectangle 101" x="439.17" y="111.81" width="5.41" height="4.5" style="fill: #9b9697; stroke-width: 0px;"/>
    <rect id="Rectangle_102" data-name="Rectangle 102" x="402.76" y="124.86" width="14.79" height="4.5" style="fill: #9b9697; stroke-width: 0px;"/>
    <rect id="Rectangle_103" data-name="Rectangle 103" x="402.76" y="118.5" width="11.04" height="4.18" style="fill: #9b9697; stroke-width: 0px;"/>
  </g>
  <g>
    <path id="Path_254" data-name="Path 254" d="M153.05,120.6c0,4.84-3.92,8.76-8.76,8.76-4.84,0-8.76-3.92-8.76-8.76,0-4.84,3.92-8.76,8.76-8.76h0c4.84,0,8.76,3.92,8.76,8.76" style="fill: #361e54; stroke-width: 0px;"/>
    <path id="Path_255" data-name="Path 255" d="M166.56,120.6c0,4.84-3.92,8.76-8.76,8.76-4.84,0-8.76-3.92-8.76-8.76s3.92-8.76,8.76-8.76h0c4.83,0,8.75,3.92,8.76,8.76" style="fill: #4d1f68; stroke-width: 0px;"/>
    <path id="Path_256" data-name="Path 256" d="M180.08,120.6c0,4.84-3.92,8.76-8.76,8.76-4.84,0-8.76-3.92-8.76-8.76s3.92-8.76,8.76-8.76h0c4.83,0,8.75,3.92,8.76,8.76" style="fill: #5e2070; stroke-width: 0px;"/>
    <path id="Path_257" data-name="Path 257" d="M193.6,120.6c0,4.84-3.92,8.76-8.76,8.76-4.84,0-8.76-3.92-8.76-8.76s3.92-8.76,8.76-8.76h0c4.84,0,8.76,3.92,8.76,8.76" style="fill: #67267a; stroke-width: 0px;"/>
    <path id="Path_258" data-name="Path 258" d="M151.05,115.03c-2.66,3.23-2.66,7.9,0,11.13,2.66-3.23,2.66-7.9,0-11.13" style="fill: #231a3b; stroke-width: 0px;"/>
    <path id="Path_259" data-name="Path 259" d="M164.57,115.03c-2.66,3.23-2.66,7.9,0,11.13,2.66-3.23,2.66-7.9,0-11.13" style="fill: #351e54; stroke-width: 0px;"/>
    <path id="Path_260" data-name="Path 260" d="M178.08,115.03c-2.66,3.23-2.66,7.9,0,11.13,2.66-3.23,2.66-7.9,0-11.13" style="fill: #4f1b65; stroke-width: 0px;"/>
    <path id="Path_261" data-name="Path 261" d="M146.85,123.79c-.74.54-1.64.82-2.56.81-2,.06-3.67-1.52-3.72-3.52,0-.14,0-.28.01-.42-.16-2.08,1.39-3.9,3.47-4.06.13-.01.26-.01.4-.01.84-.03,1.66.22,2.34.72l-.45.72c-.55-.34-1.19-.52-1.83-.52-1.56-.03-2.84,1.21-2.87,2.77,0,.1,0,.2.01.31-.19,1.5.87,2.88,2.37,3.07.12.02.25.02.37.02.71,0,1.41-.21,2.01-.6l.46.71Z" style="fill: #fff; stroke-width: 0px;"/>
    <path id="Path_262" data-name="Path 262" d="M187.41,123.79c-.74.54-1.64.82-2.56.81-2,.06-3.67-1.51-3.72-3.51,0-.14,0-.28.01-.42-.16-2.08,1.39-3.9,3.47-4.06.13-.01.26-.01.4-.01.84-.03,1.66.22,2.34.72l-.45.72c-.55-.34-1.19-.52-1.83-.52-1.56-.03-2.84,1.22-2.87,2.78,0,.1,0,.2.01.3-.19,1.5.87,2.88,2.37,3.07.12.02.25.02.37.02.71,0,1.41-.21,2.01-.6l.46.71Z" style="fill: #fff; stroke-width: 0px;"/>
    <path id="Path_263" data-name="Path 263" d="M155.63,124.45v-7.68h4.26v.85h-3.24v2.42h3.05v.82h-3.05v2.71h3.33v.88h-4.35Z" style="fill: #fff; stroke-width: 0px;"/>
    <rect id="Rectangle_95" data-name="Rectangle 95" x="170.84" y="116.75" width="1.04" height="7.69" style="fill: #fff; stroke-width: 0px;"/>
    <path id="Path_261-2" data-name="Path 261" d="M146.52,123.79c-.74.54-1.64.82-2.56.81-2,.06-3.67-1.52-3.72-3.52,0-.14,0-.28.01-.42-.16-2.08,1.39-3.9,3.47-4.06.13-.01.26-.01.4-.01.84-.03,1.66.22,2.34.72l-.45.72c-.55-.34-1.19-.52-1.83-.52-1.56-.03-2.84,1.21-2.87,2.77,0,.1,0,.2.01.31-.19,1.5.87,2.88,2.37,3.07.12.02.25.02.37.02.71,0,1.41-.21,2.01-.6l.46.71Z" style="fill: #fff; stroke-width: 0px;"/>
  </g>
  <g>
    <g>
      <path id="Path_265" data-name="Path 265" d="M136.03,83.11c-.51-.55-.77-1.29-.73-2.04v-42.13c-.04-.75.23-1.48.73-2.04,1.14-1.03,2.87-1.03,4.01,0,.51.55.77,1.29.73,2.04v42.13c.03.75-.23,1.48-.73,2.04-1.14,1.02-2.87,1.02-4.01,0" style="fill: #464545; stroke-width: 0px;"/>
      <path id="Path_266" data-name="Path 266" d="M157.83,82.58c-2.7-.8-5.19-2.18-7.31-4.04-.66-.6-1.02-1.45-1-2.34,0-.59.18-1.16.54-1.62.28-.43.76-.69,1.27-.7.69.04,1.34.3,1.87.73,4.03,3.17,9.03,4.87,14.16,4.81,3.09.19,6.17-.58,8.81-2.2,2.03-1.43,3.19-3.8,3.07-6.28.06-1.41-.47-2.78-1.47-3.78-1.11-1.04-2.43-1.82-3.87-2.31-2.13-.72-4.29-1.32-6.48-1.8-3.05-.67-6.06-1.56-8.98-2.67-2.2-.84-4.15-2.22-5.68-4.01-1.51-1.94-2.28-4.36-2.16-6.81-.04-2.54.71-5.02,2.16-7.11,1.53-2.14,3.64-3.81,6.08-4.81,2.82-1.18,5.86-1.76,8.91-1.7,2.96-.03,5.91.46,8.71,1.43,2.53.86,4.85,2.26,6.78,4.11.67.6,1.06,1.44,1.08,2.33,0,.59-.18,1.16-.54,1.62-.28.43-.76.69-1.27.7-.7-.07-1.36-.33-1.93-.73-1.82-1.56-3.87-2.82-6.08-3.74-2.16-.76-4.45-1.13-6.74-1.08-3.04-.18-6.06.62-8.61,2.3-2.03,1.5-3.18,3.92-3.07,6.44-.12,2.13.91,4.15,2.7,5.31,2.58,1.48,5.39,2.53,8.31,3.1,4.05.98,7.23,1.88,9.55,2.7,2.2.75,4.18,2.02,5.77,3.71,1.6,1.82,2.42,4.19,2.3,6.61.05,2.49-.71,4.92-2.16,6.94-1.56,2.09-3.68,3.71-6.11,4.67-2.86,1.16-5.93,1.73-9.02,1.67-3.25.01-6.49-.49-9.58-1.5" style="fill: #464545; stroke-width: 0px;"/>
      <path id="Path_267" data-name="Path 267" d="M194.32,83.11c-.51-.55-.77-1.29-.73-2.04v-42.13c-.04-.75.23-1.48.73-2.04,1.14-1.03,2.87-1.03,4.01,0,.51.55.77,1.29.73,2.04v42.13c.04.75-.23,1.48-.73,2.04-1.14,1.02-2.87,1.02-4.01,0" style="fill: #464545; stroke-width: 0px;"/>
    </g>
    <g>
      <path id="Path_276" data-name="Path 276" d="M271.17,36.83c.49.56.74,1.29.7,2.04v42.26c.03.71-.21,1.4-.67,1.93-.49.51-1.17.78-1.87.73-.68.05-1.35-.22-1.8-.73-.42-.55-.64-1.24-.6-1.93v-34.11l-14.49,27.77c-.42,1.15-1.51,1.92-2.73,1.94-1.22-.04-2.3-.8-2.74-1.94l-14.56-27.44v33.78c.03.7-.19,1.39-.63,1.93-.47.51-1.14.78-1.84.73-.7.04-1.38-.23-1.87-.73-.46-.54-.7-1.23-.67-1.93v-42.26c-.04-.75.23-1.48.73-2.04.53-.53,1.26-.81,2-.77,1.2.06,2.24.82,2.67,1.93l16.96,32.51,16.75-32.51c.26-.59.66-1.1,1.17-1.5.44-.3.97-.45,1.5-.44.74-.04,1.46.24,1.97.77" style="fill: #464545; stroke-width: 0px;"/>
      <path id="Path_277" data-name="Path 277" d="M308.26,62.97v18.16c.03.71-.22,1.41-.7,1.93-.5.5-1.19.77-1.9.73-1.39.08-2.59-.98-2.67-2.37,0-.1,0-.2,0-.3v-3.2c-.79,1.85-2.15,3.41-3.87,4.44-1.82,1.07-3.9,1.61-6.01,1.57-2,.02-3.97-.41-5.77-1.27-1.68-.78-3.13-2-4.17-3.54-1.01-1.47-1.55-3.22-1.53-5.01-.13-2.07.54-4.12,1.87-5.71,1.7-1.59,3.84-2.61,6.14-2.94,3.92-.69,7.9-.99,11.88-.9h1.47v-2.2c.18-2.09-.4-4.17-1.62-5.87-1.41-1.37-3.35-2.05-5.31-1.87-3.23.05-6.39.9-9.22,2.47-.75.57-1.62.95-2.54,1.13-.51.01-1-.21-1.33-.6-.37-.42-.56-.97-.54-1.53-.01-.59.18-1.16.54-1.62.52-.58,1.14-1.07,1.84-1.44,1.67-.93,3.45-1.64,5.31-2.1,1.93-.5,3.92-.76,5.91-.77,8.15,0,12.22,4.27,12.22,12.82M300.4,76.97c1.75-1.89,2.67-4.4,2.57-6.98v-1.93h-1.2c-2.99-.06-5.98.11-8.95.5-1.58.15-3.1.72-4.38,1.67-.92.9-1.39,2.16-1.3,3.44-.04,1.65.66,3.24,1.91,4.32,1.32,1.15,3.02,1.76,4.77,1.7,2.48.08,4.87-.9,6.58-2.7" style="fill: #464545; stroke-width: 0px;"/>
      <path id="Path_278" data-name="Path 278" d="M337.03,52.56c.03.63-.19,1.24-.6,1.71-.58.49-1.31.77-2.07.77l-2,.2c-2.57.06-4.98,1.22-6.64,3.17-1.44,1.85-2.2,4.14-2.16,6.48v16.21c.06.74-.21,1.47-.73,2-.54.46-1.23.7-1.93.66-.72.03-1.43-.22-1.97-.7-.53-.51-.81-1.23-.77-1.97v-28.15c-.04-.74.25-1.47.8-1.97.53-.47,1.22-.72,1.93-.7,1.36-.05,2.49,1.01,2.54,2.37,0,.08,0,.16,0,.23v3.74c.84-1.86,2.23-3.42,3.98-4.47,1.8-1.05,3.83-1.67,5.91-1.8l.93-.06c1.87-.13,2.8.62,2.8,2.27" style="fill: #464545; stroke-width: 0px;"/>
      <path id="Path_279" data-name="Path 279" d="M368.74,81.33c0,.65-.25,1.27-.7,1.73-.44.48-1.06.74-1.7.73-.68-.04-1.32-.33-1.8-.8l-17.43-15.02v13.15c.04.74-.24,1.46-.77,1.97-.52.47-1.2.72-1.9.7-.72.03-1.43-.22-1.97-.7-.53-.51-.81-1.23-.77-1.97v-42.39c-.04-.74.24-1.46.77-1.97.54-.48,1.25-.73,1.97-.7.7-.02,1.38.23,1.9.7.53.51.81,1.23.77,1.97v27.12l15.96-14.62c.47-.5,1.12-.79,1.8-.8,1.35.02,2.45,1.11,2.47,2.47,0,.77-.35,1.5-.93,2l-13.15,11.74,14.42,12.55c.65.53,1.05,1.32,1.08,2.16" style="fill: #464545; stroke-width: 0px;"/>
      <path id="Path_280" data-name="Path 280" d="M400.91,76.52c.37.42.56.97.54,1.53,0,1.11-.78,2.14-2.34,3.07-1.59.93-3.29,1.64-5.07,2.1-1.7.46-3.45.69-5.21.7-4.42.23-8.74-1.39-11.92-4.47-3.06-3.36-4.64-7.81-4.38-12.35-.06-3.06.6-6.09,1.94-8.85,1.21-2.47,3.09-4.54,5.44-5.97,2.41-1.45,5.17-2.2,7.98-2.16,3.81-.18,7.49,1.34,10.08,4.14,2.62,3.13,3.96,7.14,3.74,11.22.06.69-.13,1.37-.54,1.93-.46.44-1.1.66-1.73.6h-21.5c.4,7.65,4.03,11.48,10.88,11.48,1.52.03,3.04-.2,4.47-.7,1.38-.53,2.72-1.17,4.01-1.91.7-.49,1.5-.83,2.33-1,.49,0,.96.22,1.27.6M381.11,56.99c-1.85,2.1-2.92,4.77-3.04,7.56h18.91c.1-2.73-.78-5.41-2.47-7.56-1.68-1.81-4.08-2.77-6.54-2.64-2.56-.12-5.04.85-6.84,2.67" style="fill: #464545; stroke-width: 0px;"/>
      <path id="Path_281" data-name="Path 281" d="M426.8,81.66c.04.67-.28,1.32-.84,1.7-.76.42-1.64.57-2.5.43l-1.8-.14c-2.94,0-5.77-1.15-7.88-3.2-1.87-2.41-2.78-5.43-2.54-8.48v-16.75h-4.47c-.64.04-1.27-.16-1.77-.57-.42-.38-.66-.93-.63-1.5-.03-.61.2-1.2.63-1.62.49-.43,1.12-.64,1.77-.6h4.47v-7.56c-.04-.73.22-1.44.73-1.97.55-.49,1.27-.74,2-.7.71-.03,1.41.22,1.93.7.51.52.78,1.24.73,1.97v7.56h7.45c.62-.03,1.24.19,1.7.6.43.42.67,1.01.63,1.62.02.57-.21,1.12-.63,1.5-.47.4-1.08.6-1.7.57h-7.41v17.03c-.17,1.89.36,3.79,1.5,5.31,1.2,1.18,2.82,1.84,4.51,1.84l1.8.14c1.56.13,2.34.85,2.34,2.16" style="fill: #464545; stroke-width: 0px;"/>
      <path id="Path_282" data-name="Path 282" d="M437.26,83.2c-1.73-.44-3.38-1.14-4.9-2.07-.65-.4-1.23-.91-1.7-1.5-.34-.5-.52-1.1-.5-1.7-.02-.52.16-1.03.5-1.43.33-.38.8-.59,1.3-.57.85.13,1.66.47,2.33,1,1.26.77,2.59,1.4,3.98,1.91,1.58.51,3.24.75,4.9.7,1.95.11,3.89-.33,5.61-1.27,1.29-.76,2.06-2.17,2-3.67.04-.85-.22-1.69-.73-2.37-.7-.74-1.57-1.3-2.54-1.62-1.72-.61-3.48-1.09-5.27-1.43-3.03-.47-5.91-1.64-8.41-3.41-1.7-1.44-2.64-3.58-2.54-5.81-.02-1.82.54-3.6,1.62-5.07,1.14-1.53,2.68-2.73,4.44-3.47,2.03-.88,4.23-1.31,6.44-1.27,1.7,0,3.4.23,5.04.7,1.54.42,2.99,1.09,4.32,1.97,1.26.67,2.11,1.92,2.27,3.34.01.54-.18,1.07-.54,1.47-.31.38-.78.6-1.27.6-.89-.15-1.72-.55-2.4-1.13-1.12-.73-2.3-1.36-3.54-1.87-1.33-.48-2.73-.71-4.14-.67-1.79-.09-3.56.4-5.04,1.4-1.23.84-1.94,2.25-1.91,3.74-.04.85.21,1.68.7,2.37.63.73,1.43,1.28,2.33,1.62,1.52.6,3.1,1.06,4.7,1.37,2.41.48,4.77,1.22,7.02,2.2,1.45.62,2.69,1.64,3.57,2.94.76,1.34,1.14,2.86,1.08,4.4.05,2.71-1.28,5.27-3.54,6.78-2.76,1.83-6.04,2.73-9.35,2.57-1.97,0-3.93-.24-5.84-.73" style="fill: #464545; stroke-width: 0px;"/>
    </g>
  </g>
  <g>
    <g id="Group_91-2" data-name="Group 91-2">
      <path id="Path_251" data-name="Path 251" d="M46.07,119.06L1.24,93.12c-1.54-1.38-1.67-3.75-.28-5.29.12-.13.24-.25.37-.36l44.14-25.79c1.79-.98,4.63-2.56,10.04.35l43.52,25.19c1.64,1.59,1.68,4.2.09,5.84-.05.05-.1.1-.15.15l-45.23,26.15c-2.49.96-5.26.87-7.67-.27" style="fill: #96232c; stroke-width: 0px;"/>
    </g>
    <path id="Path_252" data-name="Path 252" d="M46.07,98.95L1.24,73c-1.54-1.38-1.66-3.75-.28-5.29.12-.13.24-.25.37-.36l44.14-25.79c1.79-.99,4.63-2.56,10.04.35l43.52,25.18c1.64,1.59,1.68,4.2.09,5.84-.05.05-.1.1-.15.15l-45.23,26.15c-2.49.96-5.26.87-7.67-.27" style="fill: #3e8df4; stroke-width: 0px;"/>
    <path id="Path_252-2" data-name="Path 252" d="M46.07,78.84L1.24,52.89c-1.54-1.38-1.66-3.75-.28-5.29.12-.13.24-.25.37-.36l44.14-25.79c1.79-.99,4.63-2.56,10.04.35l43.52,25.18c1.64,1.59,1.68,4.2.09,5.84-.05.05-.1.1-.15.15l-45.23,26.15c-2.49.96-5.26.87-7.67-.27" style="fill: #004e75; stroke-width: 0px;"/>
    <path id="Path_253" data-name="Path 253" d="M46.07,58.71L1.24,32.76c-1.54-1.38-1.66-3.75-.28-5.29.12-.13.24-.25.37-.36L45.48,1.32c1.79-.98,4.63-2.56,10.04.35l43.52,25.19c1.64,1.59,1.68,4.2.09,5.84-.05.05-.1.1-.15.15l-45.23,26.15c-2.49.96-5.26.87-7.67-.27" style="fill: #392053; stroke-width: 0px;"/>
  </g>
  <g>
    <path d="M370.72,120.87c1.78.59,2.44,1.89,2.55,3.54.1,1.38-.03,2.76.11,4.14.02.2.02.41.07.61.06.22.02.32-.22.3-.02,0-.04,0-.06,0-1.5-.05-1.29.34-1.41-1.31-.07-1.08.01-2.16-.05-3.24-.13-2.23-.99-3.16-3.21-3.26-2.09-.1-4.19-.03-6.28-.05-.41,0-.33.26-.33.49,0,2.28-.01,4.55,0,6.83,0,.43-.1.57-.55.56-1.01-.03-1.01,0-1.01-1.03,0-5.24,0-10.48-.01-15.73,0-.5.13-.62.62-.6,2.77.07,5.54-.13,8.3.12,1.62.14,3.08.72,3.95,2.2,1.41,2.39.38,5.3-2.2,6.31-.07.03-.13.06-.28.14ZM365.54,113.55c-1.18,0-2.15.02-3.12,0-.41-.01-.54.08-.53.52.03,1.51,0,3.02.01,4.53,0,.5-.17,1.17.08,1.46.3.33.99.11,1.5.1,1.85-.03,3.7.14,5.54-.11,1.27-.17,2.4-.61,2.92-1.93.8-2.06-.15-3.84-2.31-4.35-1.42-.34-2.86-.15-4.09-.21Z" style="fill: #42367c; stroke-width: 0px;"/>
    <path d="M310.16,120.77c0-2.7,0-5.41,0-8.11,0-.43.11-.56.55-.55,3.93.02,7.86.02,11.78,0,.49,0,.59.15.57.6-.03.83,0,.83-.83.83-3.31,0-6.62,0-9.93-.01-.45,0-.61.09-.6.57.03,1.64.03,3.28,0,4.92,0,.46.1.59.58.59,3.22-.02,6.43,0,9.65-.02.48,0,.6.14.57.59-.05.97.12.82-.84.83-3.12,0-6.25.01-9.37,0-.47,0-.6.12-.59.59.03,1.94.03,3.88,0,5.82,0,.5.11.66.64.65,3.55-.03,7.11,0,10.66-.02.45,0,.57.08.46.55-.19.86-.16.87-1.01.87-3.91,0-7.82,0-11.73.01-.48,0-.58-.12-.57-.58.02-2.7.01-5.41.01-8.11Z" style="fill: #42367c; stroke-width: 0px;"/>
    <path d="M327.07,120.77c0-2.7.01-5.41-.01-8.11,0-.44.12-.56.56-.56,2.58.03,5.16.02,7.74.05,1.05.01,2.08.22,3.03.7,1.81.92,2.71,2.8,2.4,4.99-.35,2.43-1.9,3.9-4.44,4.22-1.75.21-3.51.06-5.27.1-.64.01-1.27.03-1.91,0-.43-.02-.57.09-.56.55.03,2.07,0,4.14.02,6.21,0,.41-.07.58-.54.56-1.02-.04-1.02,0-1.02-1.03,0-2.55,0-5.11,0-7.66ZM328.62,117.14c0,.99.04,1.98-.01,2.96-.03.54.17.63.66.62,1.68-.03,3.37-.01,5.05,0,.6,0,1.2-.02,1.79-.12,1.04-.16,2-.5,2.6-1.45,1.32-2.09.29-4.71-2.09-5.34-.31-.08-.62-.13-.94-.16-2.22-.18-4.45-.03-6.67-.09-.35,0-.39.15-.39.44.01,1.04,0,2.09,0,3.13Z" style="fill: #42367c; stroke-width: 0px;"/>
    <path d="M344.43,120.77c0-2.71.01-5.41-.01-8.12,0-.44.11-.56.55-.55,3.84.02,7.67.02,11.51,0,.45,0,.68.09.59.57-.02.09-.01.19,0,.28.07.46-.1.6-.57.59-3.31-.02-6.62,0-9.93-.02-.46,0-.6.09-.59.57.03,1.81.03,3.62,0,5.43,0,.41.08.53.52.53,3.09-.02,6.17,0,9.26-.02.48,0,.59.14.57.59-.04.83,0,.83-.84.83-2.99,0-5.99,0-8.98,0-.42,0-.54.1-.53.52.02,2.33,0,4.66.02,7,0,.39-.1.51-.49.5-1.07-.02-1.07,0-1.07-1.08v-7.61Z" style="fill: #42367c; stroke-width: 0px;"/>
    <path d="M285.06,115.89c.28-.03.48.12.67.31,1.21,1.21,2.43,2.42,3.64,3.64.48.48.49.88.02,1.36-1.22,1.23-2.45,2.46-3.69,3.67-.52.51-1.24.35-1.42-.29-.11-.38.1-.64.34-.89.94-.94,1.86-1.89,2.82-2.8.31-.3.29-.46,0-.75-.97-.93-1.91-1.89-2.86-2.84-.27-.27-.44-.57-.25-.95.14-.29.36-.47.72-.46Z" style="fill: #7969f2; stroke-width: 0px;"/>
    <path d="M297.73,112.51c.03.28-.12.49-.31.68-1.22,1.21-2.43,2.43-3.65,3.63-.47.47-.89.45-1.36-.01-1.22-1.21-2.44-2.42-3.65-3.64-.44-.44-.47-.87-.11-1.22.34-.33.81-.29,1.23.13.97.96,1.94,1.91,2.89,2.89.25.25.38.24.61,0,.96-.99,1.95-1.95,2.93-2.93.28-.28.6-.38.97-.23.31.12.47.36.45.71Z" style="fill: #3e8df4; stroke-width: 0px;"/>
    <path d="M301.99,124.27c0,.47-.13.74-.43.88-.31.15-.64.13-.89-.11-1.33-1.31-2.66-2.63-3.96-3.96-.32-.33-.26-.73.06-1.05,1.28-1.28,2.56-2.57,3.85-3.84.38-.37.8-.36,1.14-.01.31.32.3.77-.06,1.15-.9.92-1.83,1.82-2.73,2.73-.62.62-.61.45-.02,1.05.89.9,1.8,1.8,2.7,2.69.17.17.35.34.34.47Z" style="fill: #58bbf8; stroke-width: 0px;"/>
    <path d="M297.83,128.6c-.02.3-.14.59-.45.7-.35.12-.69.09-.98-.21-.93-.95-1.89-1.86-2.81-2.82-.33-.34-.5-.39-.86-.02-.89.95-1.84,1.86-2.77,2.78-.45.44-1.03.45-1.31.03-.23-.35-.23-.7.08-1.02,1.28-1.28,2.56-2.56,3.85-3.84.37-.36.78-.36,1.14,0,1.28,1.26,2.55,2.53,3.81,3.8.16.16.27.36.28.61Z" style="fill: #67dbf8; stroke-width: 0px;"/>
    <path d="M301.99,128.59c0,.3-.14.55-.41.68-.26.13-.54.14-.8-.02-.12-.08-.23-.19-.34-.29-2.12-2.11-4.23-4.22-6.35-6.33-.14-.14-.3-.3-.37-.48-.12-.32-.06-.63.22-.86.29-.25.62-.25.94-.07.14.08.26.21.38.33,2.09,2.08,4.18,4.17,6.27,6.25.23.22.47.44.46.8Z" style="fill: #42367c; stroke-width: 0px;"/>
    <path d="M285.15,111.74c.2-.01.41.14.6.33,2.17,2.16,4.34,4.32,6.5,6.49.42.42.45.89.11,1.23-.36.36-.78.33-1.22-.11-2.17-2.16-4.34-4.32-6.51-6.48-.26-.26-.45-.55-.29-.94.13-.33.37-.5.82-.51Z" style="fill: #42367c; stroke-width: 0px;"/>
    <path d="M291.71,121.1c.38,0,.62.12.77.38.14.26.14.54,0,.8-.04.08-.11.15-.18.22-2.19,2.19-4.39,4.38-6.58,6.56-.12.12-.24.25-.41.27-.33.05-.64.03-.86-.26-.23-.3-.23-.62-.02-.93.08-.12.19-.23.3-.33,2.1-2.1,4.2-4.19,6.3-6.29.21-.21.42-.43.69-.42Z" style="fill: #42367c; stroke-width: 0px;"/>
    <path d="M294.48,120.03c-.58.02-.99-.61-.71-1.15.08-.16.22-.3.35-.43,2.1-2.1,4.2-4.19,6.3-6.29.2-.2.39-.4.7-.42.31-.02.56.08.73.33.18.27.2.56.02.84-.08.12-.19.23-.29.34-2.13,2.12-4.26,4.25-6.38,6.37-.2.2-.41.38-.71.41Z" style="fill: #42367c; stroke-width: 0px;"/>
  </g>
</svg>